#!OML:ASF H:\BreakDance\Project 1\Capture day 1\Session 1\Male.ASF
:FULLY-SPECIFIED
:DEGREES
1077
root -4.38882 5.8226 6.14439 -381.247 208.682 339.926
lowerback 19.9562 -1.983 2.52171
upperback 13.7622 -4.82452 -0.128559
thorax 3.65781 -3.37524 -0.841017
lowerneck 1.06579 0.694315 11.8158
upperneck 190.381 -180.829 -185.585
head 183 -180.509 -183.618
rclavicle 1.31198e-014 0
rhumerus -58.2378 -39.379 -43.8689
rradius 23.3964
rwrist 11.8169
rhand -44.236 -419.58
rfingers 7.12502
rthumb -17.0483 -448.852
lclavicle 1.31198e-014 0
lhumerus 34.5988 -1.69483 43.8205
lradius 62.5651
lwrist 21.922
lhand -28.2784 322.633
lfingers 7.12502
lthumb -1.65481 -7.39406
rfemur -98.9353 -35.4076 -15.4546
rtibia 134.428
rfoot -20.2268 26.2438
rtoes -23.6812
lfemur -78.1779 62.5959 -2.32588
ltibia 134.15
lfoot -22.1744 -25.1037
ltoes -25.4271
1078
root -4.45401 5.83676 6.11164 -380.718 208.013 339.829
lowerback 19.7848 -1.99009 2.41102
upperback 13.7046 -4.85522 -0.000771496
thorax 3.69535 -3.40133 -0.64808
lowerneck 1.05491 0.850428 11.7754
upperneck 190.327 -181.093 -186.091
head 183.006 -180.625 -183.762
rclavicle -6.48038e-014 -3.81667e-014
rhumerus -57.4909 -39.0098 -43.7017
rradius 23.2684
rwrist 12.1764
rhand -44.1428 -418.913
rfingers 7.12502
rthumb -16.9587 -448.193
lclavicle -6.48038e-014 -3.81667e-014
lhumerus 35.2012 -1.47897 44.1991
lradius 62.8202
lwrist 21.5988
lhand -27.7765 322.692
lfingers 7.12502
lthumb -1.17004 -7.33101
rfemur -98.2694 -34.6837 -16.1584
rtibia 134.24
rfoot -22.1735 25.4695
rtoes -27.3721
lfemur -78.0219 63.3683 -1.9334
ltibia 134.528
lfoot -22.6858 -25.1499
ltoes -25.7858
1079
root -4.52072 5.84692 6.07589 -380.148 207.356 339.72
lowerback 19.5863 -1.98724 2.27284
upperback 13.6519 -4.87655 0.122995
thorax 3.75412 -3.42361 -0.448323
lowerneck 1.03081 1.016 11.6457
upperneck 190.265 -181.359 -186.492
head 183.013 -180.742 -183.858
rclavicle -9.89948e-014 -2.54444e-014
rhumerus -56.663 -38.5573 -43.6539
rradius 23.1238
rwrist 12.4471
rhand -44.0089 -418.213
rfingers 7.12502
rthumb -16.8298 -447.504
lclavicle -9.89948e-014 -2.54444e-014
lhumerus 35.7542 -1.30102 44.6022
lradius 63.1188
lwrist 21.3057
lhand -27.3022 322.903
lfingers 7.12502
lthumb -0.711991 -7.1185
rfemur -97.9124 -34.1183 -16.6982
rtibia 134.115
rfoot -24.0357 24.7479
rtoes -30.2239
lfemur -77.8969 64.4094 -1.58062
ltibia 134.99
lfoot -23.4233 -25.2095
ltoes -26.5043
1080
root -4.58839 5.8536 6.03732 -379.549 206.754 339.59
lowerback 19.379 -1.98175 2.12383
upperback 13.6016 -4.89281 0.220096
thorax 3.81863 -3.44167 -0.272542
lowerneck 0.963687 1.17297 11.516
upperneck 190.229 -181.604 -186.844
head 183.034 -180.849 -183.939
rclavicle 2.38542e-015 -9.54166e-015
rhumerus -55.8684 -38.0888 -43.6463
rradius 22.975
rwrist 12.7122
rhand -43.7668 -417.38
rfingers 7.12502
rthumb -16.5967 -446.691
lclavicle 2.38542e-015 -9.54166e-015
lhumerus 36.2823 -1.21749 44.9781
lradius 63.4858
lwrist 21.0725
lhand -26.8529 323.202
lfingers 7.12502
lthumb -0.278035 -6.81854
rfemur -97.9249 -33.8077 -17.1372
rtibia 134.093
rfoot -25.5168 24.3109
rtoes -31.8295
lfemur -77.7537 65.6533 -1.28586
ltibia 135.512
lfoot -24.4208 -25.2059
ltoes -27.7439
1081
root -4.65627 5.85805 5.99726 -378.955 206.248 339.421
lowerback 19.213 -1.97974 1.96816
upperback 13.5601 -4.91279 0.262075
thorax 3.86798 -3.46008 -0.148304
lowerneck 0.871102 1.31132 11.4187
upperneck 190.198 -181.814 -187.128
head 183.058 -180.942 -184.005
rclavicle 1.19271e-014 1.04958e-013
rhumerus -55.2027 -37.6805 -43.6191
rradius 22.8243
rwrist 13.0687
rhand -43.4287 -416.391
rfingers 7.12502
rthumb -16.2712 -445.728
lclavicle 1.19271e-014 1.04958e-013
lhumerus 36.8056 -1.26945 45.2561
lradius 63.9457
lwrist 20.9361
lhand -26.4179 323.546
lfingers 7.12502
lthumb 0.142107 -6.47393
rfemur -98.249 -33.7563 -17.5453
rtibia 134.164
rfoot -26.4638 24.2915
rtoes -32.2581
lfemur -77.5974 66.9122 -1.09182
ltibia 136.058
lfoot -25.5479 -25.0729
ltoes -29.4664
1082
root -4.72361 5.86108 5.95662 -378.411 205.846 339.233
lowerback 19.1327 -1.98161 1.82301
upperback 13.5331 -4.9375 0.247663
thorax 3.88482 -3.48004 -0.083298
lowerneck 0.821102 1.42885 11.3234
upperneck 190.109 -181.988 -187.279
head 183.055 -181.021 -184.03
rclavicle -1.51076e-014 1.27222e-014
rhumerus -54.706 -37.3703 -43.5411
rradius 22.6713
rwrist 13.5225
rhand -43.0429 -415.3
rfingers 7.12502
rthumb -15.8997 -444.667
lclavicle -1.51076e-014 1.27222e-014
lhumerus 37.3374 -1.47565 45.3898
lradius 64.5029
lwrist 20.9222
lhand -25.9912 323.907
lfingers 7.12502
lthumb 0.55428 -6.1142
rfemur -98.7873 -33.931 -17.9172
rtibia 134.297
rfoot -26.8868 24.7179
rtoes -31.7812
lfemur -77.4462 68.0366 -0.979132
ltibia 136.591
lfoot -26.6098 -24.8528
ltoes -31.2467
1083
root -4.7898 5.86298 5.91638 -377.939 205.525 339.056
lowerback 19.1573 -1.98665 1.70172
upperback 13.5189 -4.96642 0.197707
thorax 3.85877 -3.5023 -0.0613773
lowerneck 0.709475 1.5248 11.3404
upperneck 190.077 -182.129 -187.481
head 183.078 -181.085 -184.091
rclavicle 6.04305e-014 3.18055e-015
rhumerus -54.3811 -37.2085 -43.3326
rradius 22.5057
rwrist 14.0864
rhand -42.639 -414.156
rfingers 7.12502
rthumb -15.5107 -443.554
lclavicle 6.04305e-014 3.18055e-015
lhumerus 37.8652 -1.814 45.3884
lradius 65.1443
lwrist 21.0226
lhand -25.5737 324.284
lfingers 7.12502
lthumb 0.957444 -5.73838
rfemur -99.4317 -34.2448 -18.2189
rtibia 134.457
rfoot -26.9401 25.4513
rtoes -30.7714
lfemur -77.318 68.9828 -0.907388
ltibia 137.093
lfoot -27.4978 -24.6323
ltoes -32.6994
1084
root -4.85507 5.86381 5.87748 -377.548 205.232 338.932
lowerback 19.2813 -1.99413 1.64789
upperback 13.5213 -4.99533 0.129491
thorax 3.79571 -3.52329 -0.0897982
lowerneck 0.582517 1.61222 11.4003
upperneck 190.055 -182.255 -187.691
head 183.105 -181.144 -184.162
rclavicle -3.97569e-015 -3.18055e-015
rhumerus -54.1871 -37.2246 -42.9728
rradius 22.3014
rwrist 14.7717
rhand -42.2651 -413.045
rfingers 7.12502
rthumb -15.1505 -442.47
lclavicle -3.97569e-015 -3.18055e-015
lhumerus 38.3854 -2.24984 45.2626
lradius 65.8488
lwrist 21.2069
lhand -25.173 324.693
lfingers 7.12502
lthumb 1.34447 -5.3311
rfemur -100.074 -34.5919 -18.394
rtibia 134.614
rfoot -26.8694 26.2257
rtoes -29.4686
lfemur -77.2278 69.7996 -0.804811
ltibia 137.566
lfoot -28.23 -24.4769
ltoes -33.7256
1085
root -4.91962 5.86364 5.84045 -377.226 204.913 338.911
lowerback 19.4696 -2.00241 1.69936
upperback 13.5402 -5.01732 0.0725586
thorax 3.71394 -3.53784 -0.162183
lowerneck 0.439086 1.69758 11.494
upperneck 190.029 -182.382 -187.958
head 183.136 -181.201 -184.256
rclavicle 6.75868e-014 -4.45278e-014
rhumerus -54.0154 -37.3745 -42.5223
rradius 22.0173
rwrist 15.5359
rhand -41.979 -412.093
rfingers 7.12502
rthumb -14.8749 -441.539
lclavicle 6.75868e-014 -4.45278e-014
lhumerus 38.8885 -2.73976 45.0521
lradius 66.599
lwrist 21.4154
lhand -24.7909 325.145
lfingers 7.12502
lthumb 1.71351 -4.88196
rfemur -100.677 -34.8997 -18.4118
rtibia 134.769
rfoot -26.8664 26.8707
rtoes -28.0787
lfemur -77.2003 70.6045 -0.604166
ltibia 138.024
lfoot -28.7883 -24.4529
ltoes -34.1901
1086
root -4.98328 5.86139 5.80486 -376.926 204.532 338.992
lowerback 19.6797 -2.00416 1.84285
upperback 13.5677 -5.02126 0.0433213
thorax 3.62864 -3.54016 -0.258383
lowerneck 0.229727 1.77824 11.6739
upperneck 190.034 -182.509 -188.386
head 183.189 -181.254 -184.414
rclavicle -5.48646e-014 3.81667e-014
rhumerus -53.7754 -37.6147 -42.0349
rradius 21.6123
rwrist 16.3571
rhand -41.7909 -411.347
rfingers 7.12502
rthumb -14.6937 -440.806
lclavicle -5.48646e-014 3.81667e-014
lhumerus 39.3607 -3.24723 44.8121
lradius 67.3825
lwrist 21.5724
lhand -24.4055 325.64
lfingers 7.12502
lthumb 2.08575 -4.3902
rfemur -101.244 -35.1224 -18.3003
rtibia 134.924
rfoot -27.0553 27.2431
rtoes -26.8814
lfemur -77.0776 71.6823 -0.15445
ltibia 138.503
lfoot -29.443 -24.5344
ltoes -34.5241
